<?xml version="1.0" encoding="utf-8"?>
<!-- Generator: Adobe Illustrator 23.0.6, SVG Export Plug-In . SVG Version: 6.00 Build 0)  -->
<svg version="1.1" id="レイヤー_1" xmlns="http://www.w3.org/2000/svg" xmlns:xlink="http://www.w3.org/1999/xlink" x="0px"
	 y="0px" viewBox="0 0 2316 329.5" style="enable-background:new 0 0 2316 329.5;" xml:space="preserve">
<style type="text/css">
	.st0{clip-path:url(#SVGID_2_);fill:url(#SVGID_3_);}
</style>
<g>
	<g>
		<defs>
			<path id="SVGID_1_" d="M450.3,119.7c0,55.7,124.6,10.6,124.6,81.2v25.8c0,35.6-32.7,46.2-62.9,46.2h-78.1V254h77.8
				c21,0,40.2-4.6,40.2-29.3V202c0-49.9-124.6-4.9-124.6-82.1v-19.5c0-35.3,27.3-45.6,58.6-45.6h73.8V74h-76.1
				c-18.4,0-33.3,7.8-33.3,28.1L450.3,119.7L450.3,119.7z M746.5,152.1v120.8h-22.7V152.4c0-19.8-10.3-31.3-29.6-31.3
				c-20.4,0-46.5,16.4-57.1,31.6l0.3,120.3H615V44.5h22.4v87c15.5-16.1,38.5-28.7,63.1-28.7C728.9,102.7,746.5,121.1,746.5,152.1z
				 M853.5,104.2c30.4-0.3,59.4,8,59.4,43.6v125.1h-19.8l-1.1-22.7c-13.5,17.2-33.9,23-56,23c-31.9,0-54.8-12.9-54.8-48.5
				c0-64.9,68-56,110.2-56V148c0-22.4-20.1-26.4-38.7-26.1h-56.8v-17.7H853.5z M891.4,233.3v-47.9h-38.2c-26.7,0-49.1,5.7-49.1,38.2
				c0,24.4,15.8,31.9,36.5,31.9C859.8,255.4,878.5,248,891.4,233.3z M1012.8,183.1l78.6,89.8h-29l-63.7-76.1l-14.1,15.5l0.3,60.6
				h-22.7v-229H985v141.8l72.9-81.5h28.1L1012.8,183.1z M1189,104.2c31,0,58.3,10.3,58.3,45.9v8.6c0,35.9-27.6,43.9-58.3,43.9h-53.1
				c0,31-2.9,51.4,33.9,51.4h66.3v18.9h-66.3c-37,0-56.5-10.6-56.5-50.2v-72.6c0-35.6,27-45.9,58.3-45.9L1189,104.2L1189,104.2z
				 M1189.3,123.4h-18.1c-22.4,0-35,3.7-35,29.3v33h52.8c22.4,0,35.3-4,35.3-29.6C1224.3,128.3,1215.1,123.4,1189.3,123.4z
				 M1561.8,150.9V54.2h22.7v218.7h-22.7V169.3h-105.3v103.6h-22.7V54.2h22.7v96.7H1561.8z M1697,104.2c30.4-0.3,59.4,8,59.4,43.6
				v125.1h-19.8l-1.1-22.7c-13.5,17.2-33.9,23-56,23c-31.9,0-54.8-12.9-54.8-48.5c0-64.9,68-56,110.2-56V148
				c0-22.4-20.1-26.4-38.7-26.1h-56.8v-17.7H1697z M1734.9,233.3v-47.9h-38.2c-26.7,0-49.1,5.7-49.1,38.2
				c0,24.4,15.8,31.9,36.5,31.9C1703.3,255.4,1722,248,1734.9,233.3z M1939.6,151.8v121.1h-22.7V152.1c0-19.8-10.3-31.3-29.6-31.3
				c-21.5,0-47.6,16.4-58.3,31.6l0.3,120.6h-22.4V107.6h18.9l1.7,25.3c18.4-19.5,43.9-30.1,66-30.1
				C1922,102.7,1939.6,121.1,1939.6,151.8z M2058.7,104.2c13.5,0,26.7,4.3,34.4,14.9V43.9h22.4v183.4c0,33.3-22.4,45.6-52.8,45.6
				h-27.6c-29.9,0-52.8-13.2-52.8-45.9v-78.6c0-33,23-44.2,52.8-44.2L2058.7,104.2L2058.7,104.2z M2005.3,151.2v72.9
				c0,25.8,12.3,29.9,35,29.9h22.4c20.7,0,30.4-7.2,30.4-29.3v-69.5c0-26.1-17.5-32.7-40.2-32.7
				C2030,122.5,2005.3,117.1,2005.3,151.2z M2283.4,226.7c0,39.9-30.7,46.2-63.7,46.2h-60.9V254h59.7c18.4,0,42.8-2.3,42.8-26.7
				c0-49.9-106.8-7.7-106.8-78.6c0-35.6,27.3-44.5,58-44.5h59.4v18.9h-54.5c-18.7,0-39.9,0.6-39.9,25
				C2177.5,196.6,2283.4,159.3,2283.4,226.7z M364.2,189.3c10.2-5.2,17.5-9,20.1-10.5l-2.6-4.3c-2.4,1.5-10.1,5.4-19.8,10.3
				c-42.2,21.6-83.9,43.4-93.2,53.7c-3.2-2.9-7.7-7.2-14.9-14.2c-6.8-6.6-16.1-15.6-29.2-28.1l1.2-0.7l-2.6-4.3l-43,25.7
				c-4.2,1.9-9,2.9-13.6,2.7c-5.3-0.2-10.1-1.8-13.7-4.8c-3.2-2.6-3.2-6.7-2.5-9.7c0.9-4.2,3.2-7.7,4.9-9.2
				c5.3-4.5,19.2-16.2,34.4-26.1c9.6-5.5,29.8-16,38.3-16.5c1.9-0.1,4.1-0.1,6.2-0.1c1.6,0,2.7,0.1,2.6,0.1
				c4.1,0.4,8.2,1.4,12.2,2.9c2.8,1.1,5.5,2.4,8.2,4c0.7,0.6,1.4,1.1,2.2,1.6c1,0.7,2.1,1.3,3.2,1.8c1.4,0.6,2.7,1.2,4.2,1.6
				c1.8,0.5,3.8,0.9,5.9,1.1c3.9,0.3,8.9-1.2,15.2-4.6c3.2-1.8,6.1-3.6,7.8-4.7c0.6-0.4,1.2-0.8,1.3-0.9c4.4-2.4,14.8-9.5,28-18.6
				c3.2-2.2,6.6-4.5,10.1-6.9c16.9-11.5,35.7-24.1,47.8-30.8l-2.4-4.4c-12.3,6.7-31.3,19.5-48.3,31c-3.5,2.4-6.9,4.7-10.1,6.9
				c-12.5,8.6-23.4,16-27.6,18.3c-0.4,0.2-0.9,0.5-1.7,1.1c-1.6,1.1-4.4,2.9-7.4,4.5c-6.7,3.6-10.5,4.2-12.4,4
				c-1.8-0.2-3.4-0.5-5-0.9c-1.2-0.3-2.3-0.8-3.4-1.3c-0.9-0.4-1.8-0.9-2.6-1.5c-0.6-0.4-1.3-0.9-1.9-1.4l-0.3-0.2
				c-2.9-1.8-6-3.3-9.1-4.5c-4.4-1.7-8.9-2.7-13.6-3.2c0,0-1.1-0.1-2.9-0.1c-2.3-0.1-4.6,0-6.6,0.1c-10.1,0.6-31.3,11.9-38.5,15.9
				L189,164l-0.4,0.3c-4.1-3.1-12.8-3.4-16.4-3.2c-7.4,0.4-7.5,0.4-13.8,1.7c-1.7,0.4-3.3,0.7-4.7,1.1c-7.1,1.7-11.5,2.8-18.7-0.6
				c-5.6-2.6-53.5-45.6-84.4-74L47.2,93c7.9,7.3,77.6,71.1,85.6,74.8c4.2,2,7.8,2.7,11.1,2.7c3.6,0,7-0.8,10.9-1.7
				c1.4-0.3,3-0.7,4.6-1.1c6-1.3,6-1.3,13.1-1.6c4.6-0.2,9,0.5,11.5,1.3c-14.3,9.6-27,20.3-32.1,24.6c-2.9,2.5-5.6,7.3-6.5,12
				c-1.3,6.1,0.2,11.3,4.3,14.6c4.5,3.7,10.3,5.8,16.8,6c0.3,0,0.7,0,1,0c5.1,0,10.4-1.1,14.9-3.3l37.7-22.5
				c13.6,13,23.1,22.3,30.1,29.1c8.4,8.2,13,12.7,16.5,15.7c0.1,0.1,0.3,0.2,0.4,0.4c1.4,1.1,4.6,3.7,6.5,8.4
				c1.4,3.4,1.3,5.9-3,10.4c-2.5,2.7-3.6,2-5.5,0.9c-0.5-0.3-1-0.6-1.6-0.8L232,235.2l0,0l-3.3,3.8l31,27.3c0.4,0.9,1.4,1.6,2.5,2.6
				c0.9,0.7,1.7,1.3,2.1,1.6c0.5,1,2.3,5.9-3,10.8c-5.7,5.3-11,2.5-13.8,1c-0.5-0.3-0.9-0.5-1.2-0.6c-1.3-0.5-2.6-2-3.2-2.8
				l-23.5-24l0,0l-3.6,3.5c12.1,12.3,25.2,26.3,26.9,29.1c0,0.3,0,0.5,0.1,0.8c0.2,2.7,0.3,4-5.8,8.9c-6.2,4.9-9.2,3.6-13,2
				c-0.3-0.1-0.7-0.3-1-0.4c-2-1.4-10.5-12.8-18.5-24.4l-2.9-4.3l-4.1,2.8c1.1,1.6,2.3,3.5,3.6,5.4l13,19.1
				c0.3,1.7,1.2,8.3-4.5,12.1c-5.4,3.6-8.2,1.9-10.5-0.1c-2.2-1.9-6.1-5.3-6.9-7.3c3.4-3.6,6.4-7.8,7.6-11.9
				c1.6-5.4-2.3-9.6-5.4-12.3c-2-1.7-4.3-2.6-6.5-2.8c1.2-4.3,1-6.6-4.7-11.5c-5.5-4.7-10.8-4.8-14.7-4c0-2.1-0.8-3.8-1.4-5.1
				c-0.2-0.3-0.3-0.7-0.4-1c-0.8-2.1-2.9-3.8-5-5.5c-0.4-0.4-0.8-0.7-1.2-1c-2.8-2.5-9.3-4.3-13.1-2.9c-1.1,0.4-2,0.8-2.8,1.1
				c-0.5-2.9-1.9-5.8-4.5-8.1c-5.8-5-8.5-4.8-11.6-4l-0.2,0.1c-4.7,1.2-7.8,3-15.5,10.2c-0.3-3.8-1.2-9-5.1-12.4l-69.1-56.5
				l-3.2,3.9l69,56.4c3,2.8,3.3,7.7,3.5,11c0,0.8,0.1,1.5,0.2,2.1c-0.6,0.6-1.3,1.3-2,2c-2.2,2.2-5.4,5.5-6.5,9.3
				c-1.2,4,0.4,9.8,3.4,12.4c1.4,1.2,6.3,5,11.8,5c0.2,0,0.4,0,0.6,0c0.1,0.7,0.3,1.5,0.6,2.4c1.9,5.3,6.7,11.1,12.2,11.8l0.7,0.1
				c1.6,0.2,2.8,0.3,4,0.3c0.6,0,1.2,0,1.8-0.2c0,1.5,0.3,3.2,1.4,4.9c0.3,0.4,0.5,0.9,0.8,1.4c1,1.9,2.2,4.2,4.3,5.9
				c3.2,2.8,6.4,4.1,9.7,4.1c0.2,0,0.4,0,0.6,0c1-0.1,2.1-0.4,3.2-0.8c0.1,1.1,0.3,2.4,0.7,3.7c1.7,5.3,6.8,7.2,11.3,7.2
				c0.3,0,0.6,0,0.8,0c2.5-0.1,8.8-1.6,14.7-6.2c1.5-1.2,3.8-3.1,6.3-5.4c1.6,2.4,4.3,4.8,7.3,7.4c1.3,1.1,4,3.4,8.1,3.4
				c2.4,0,5.2-0.8,8.5-3c4.9-3.3,6.5-7.8,6.9-11.5c0.7,0.6,1.3,1.1,1.7,1.3c0.3,0.1,0.7,0.3,1,0.4c4,1.7,9.5,4.1,18.1-2.6
				c7.3-5.8,8-8.6,7.7-13.1c4,1.6,10.3,2.7,16.6-3.2c5.9-5.5,5.9-11.6,4.7-15.3c1.5-0.4,3.1-1.3,4.9-3.2c5.2-5.5,6.3-10,4-15.7
				c-1.7-4.1-4.1-6.9-6-8.7C280.8,232,336.8,203.4,364.2,189.3z M117.1,270.8C117.1,270.8,117.1,270.9,117.1,270.8
				c-0.5,0.2-1,0.4-1.4,0.4c-3.1,0.2-6.7-1.9-8.9-3.8c-1.5-1.3-2.4-5.1-1.8-7.2c0.6-2,2.3-4.3,5.2-7.1
				c12.9-12.6,15.4-14.2,19.9-15.3l0.2-0.1c1.7-0.4,2.8-0.7,7.1,3c3.7,3.2,3.6,8.3,1.4,11.4c-3.1,4.5-14.3,14.2-15.4,15.2
				C121.7,268.5,119.1,270.2,117.1,270.8L117.1,270.8z M130.2,285.5l-0.7-0.1c-2.2-0.3-4.7-2.4-6.6-5.5c-1.4-2.3-1.9-4.2-2-5.2
				c2.6-1.3,5-2.9,5.6-3.4l0.2-0.1c0.5-0.4,12.6-11,16.2-16.1c0.8-1.1,1.4-2.5,1.8-3.8c0.2-0.2,0.3-0.3,0.4-0.4
				c0.2-0.2,0.7-0.7,4.5-2.2c1.8-0.7,6.3,0.5,8,1.9c0.4,0.4,0.8,0.7,1.3,1.1c1.3,1.1,3.2,2.7,3.6,3.6c0.2,0.4,0.3,0.8,0.5,1.2
				c1.1,2.4,1.8,3.9-1.5,7c-2.5,2.4-4.4,4.2-6.1,5.9c-4.9,4.9-7.7,7.6-16.6,13.9C135,286.1,134.5,286,130.2,285.5z M151.7,302
				c-2.2,0.1-4.3-0.8-6.8-2.9c-1.3-1.1-2.3-2.9-3.1-4.5c-0.3-0.6-0.6-1.1-0.9-1.6c-1.2-2-0.5-3.8-0.2-4.7v-0.1l-0.2-0.1
				c0.4-0.3,0.8-0.5,1.2-0.9c9.2-6.6,12-9.3,17.2-14.4c1.7-1.6,3.6-3.5,6-5.8c0.6-0.6,1.1-1.2,1.6-1.7c3.1-1.2,8.1-3,13.8,1.8
				c4,3.4,3.9,3.7,3,6.6l-0.2,0.5c-0.2,0.7-2,4.7-19,19.7C159.1,298.6,153.9,301.9,151.7,302z M179.7,307c-5,3.9-10.4,5-11.8,5.1
				c-1.8,0.1-6-0.1-7.1-3.7c-0.7-2.2-0.6-4.1-0.4-4.9c2.8-1.9,5.5-4.1,7.3-5.7c10.4-9.2,15.4-14.5,17.9-17.7
				c1.3-0.4,3.9-0.5,6.1,1.4c4.8,4.1,4.2,6.1,3.9,7.1C194.1,293.5,188.2,300.3,179.7,307z M222.1,54.8l-15.4,66
				c1.8,1.1,1.8,1.1,3.5,1.2l29.4-62.3c0.9-2,0.9-2-1.2-2.6l-14-3.7C222.6,52.9,222.6,52.9,222.1,54.8z M267.1,83.5L206,135
				c0.9,2.2,0.9,2.2,2.4,3.6l71.6-38.1c2.3-1.2,2.3-1.2,0.7-3.3l-10.5-13.4C268.8,82.1,268.8,82.1,267.1,83.5z M313.3,78.6l13.8-4.8
				l-12.2-8l-0.3-14.6l-11.4,9.1l-14-4.2l5.1,13.7l-8.3,12l14.6-0.7l8.8,11.6L313.3,78.6z M254.1,27.4l13.8-4.8l-12.2-8L255.4,0
				L244,9.1l-14-4.2l5.1,13.7l-8.3,12l14.6-0.7l8.8,11.6L254.1,27.4z"/>
		</defs>
		<clipPath id="SVGID_2_">
			<use xlink:href="#SVGID_1_"  style="overflow:visible;"/>
		</clipPath>
		
			<linearGradient id="SVGID_3_" gradientUnits="userSpaceOnUse" x1="0" y1="183.7" x2="2322" y2="183.7" gradientTransform="matrix(1 0 0 -1 0 380.4)">
			<stop  offset="0.25" style="stop-color:#7BCBDE"/>
			<stop  offset="0.3443" style="stop-color:#7ECBD5"/>
			<stop  offset="0.497" style="stop-color:#87CDBD"/>
			<stop  offset="0.6889" style="stop-color:#95CE96"/>
			<stop  offset="0.9104" style="stop-color:#A9D161"/>
			<stop  offset="1" style="stop-color:#B2D249"/>
		</linearGradient>
		<rect y="-22.8" class="st0" width="2322" height="439"/>
	</g>
</g>
</svg>
